<?xml version="1.0" standalone="no"?>
<!DOCTYPE svg PUBLIC "-//W3C//DTD SVG 20010904//EN"
 "http://www.w3.org/TR/2001/REC-SVG-20010904/DTD/svg10.dtd">
<svg version="1.0" xmlns="http://www.w3.org/2000/svg"
 width="1677.000000pt" height="1677.000000pt" viewBox="0 0 1677.000000 1677.000000"
 preserveAspectRatio="xMidYMid meet">
<metadata>
Created by potrace 1.11, written by Peter Selinger 2001-2013
</metadata>
<g transform="translate(0.000000,1677.000000) scale(0.100000,-0.100000)"
fill="#000000" stroke="none">
<path d="M8038 16765 c-1 -1 -61 -6 -133 -9 -71 -4 -148 -9 -170 -11 -22 -2
-67 -6 -100 -9 -145 -13 -192 -18 -215 -22 -14 -2 -50 -6 -80 -9 -30 -3 -64
-8 -75 -10 -11 -2 -42 -7 -70 -10 -27 -3 -59 -8 -71 -10 -12 -3 -39 -7 -60
-10 -42 -7 -43 -7 -179 -31 -123 -21 -393 -78 -490 -104 -44 -11 -89 -23 -100
-25 -201 -44 -886 -269 -1050 -345 -11 -5 -49 -21 -85 -36 -36 -14 -85 -35
-110 -46 -25 -11 -58 -26 -75 -33 -149 -65 -398 -187 -403 -197 -2 -5 -11 -8
-21 -8 -9 0 -21 -4 -26 -9 -6 -5 -48 -29 -95 -53 -258 -134 -620 -358 -885
-546 -191 -136 -451 -337 -550 -424 -16 -14 -40 -35 -51 -45 -133 -113 -123
-104 -283 -252 -57 -53 -168 -161 -247 -241 -149 -152 -154 -157 -274 -290
-41 -46 -80 -88 -85 -94 -21 -22 -281 -342 -310 -381 -16 -22 -32 -42 -35 -45
-6 -5 -105 -139 -130 -176 -73 -106 -124 -180 -130 -184 -3 -3 -60 -90 -127
-195 -267 -422 -452 -771 -646 -1221 -35 -82 -74 -176 -86 -209 -13 -33 -27
-69 -32 -80 -22 -51 -145 -398 -154 -435 -2 -8 -10 -35 -18 -60 -16 -47 -96
-320 -102 -349 -2 -9 -15 -59 -28 -111 -33 -127 -74 -306 -91 -390 -22 -114
-56 -303 -61 -340 -3 -25 -10 -70 -15 -100 -9 -54 -15 -101 -24 -177 -3 -21
-8 -60 -11 -88 -14 -123 -35 -354 -42 -488 -15 -249 -7 -925 12 -1117 2 -19 6
-69 10 -110 3 -41 8 -88 9 -105 2 -16 7 -57 10 -90 7 -65 24 -195 31 -235 2
-14 9 -61 15 -105 6 -44 15 -100 20 -125 5 -25 11 -58 14 -75 2 -16 7 -41 10
-55 3 -14 8 -36 10 -50 64 -379 250 -1022 421 -1455 60 -154 192 -463 220
-515 7 -14 52 -104 100 -200 89 -179 119 -235 185 -350 39 -67 75 -131 94
-165 6 -11 19 -31 27 -45 9 -14 51 -81 94 -150 67 -106 202 -312 228 -345 28
-37 68 -91 102 -140 22 -32 45 -63 50 -69 6 -6 30 -38 55 -71 25 -33 50 -65
55 -72 16 -20 27 -33 90 -113 32 -41 61 -77 64 -80 4 -3 33 -36 66 -75 32 -38
66 -77 75 -86 8 -9 38 -43 67 -75 118 -136 338 -360 503 -514 157 -146 181
-168 212 -194 13 -11 55 -47 94 -80 114 -98 299 -246 409 -327 33 -24 69 -52
79 -61 11 -10 23 -18 27 -18 4 0 14 -6 21 -12 16 -15 33 -27 183 -130 147
-100 382 -248 395 -248 5 0 10 -3 10 -7 0 -5 10 -13 23 -19 12 -6 69 -38 127
-71 178 -102 605 -323 623 -323 3 0 51 -22 108 -49 260 -121 789 -315 1114
-406 138 -39 373 -101 415 -109 14 -2 48 -10 75 -16 28 -6 61 -14 75 -16 14
-3 79 -16 145 -29 104 -21 213 -40 280 -50 11 -2 70 -10 130 -19 121 -18 135
-20 315 -40 19 -3 76 -7 125 -11 50 -4 97 -9 106 -10 97 -19 911 -27 1129 -11
210 14 331 24 380 31 14 2 56 6 93 10 37 3 76 8 85 10 9 1 40 6 67 9 28 4 66
9 85 12 19 2 51 7 70 9 19 3 46 7 60 10 14 3 43 8 65 11 35 5 354 67 410 79
45 10 66 15 83 19 9 3 46 12 82 20 357 82 979 285 1247 407 24 10 45 19 48 19
5 0 184 79 249 111 22 10 46 19 53 19 7 0 13 5 13 10 0 6 5 10 12 10 13 0 328
158 426 214 35 20 65 36 67 36 6 0 142 79 285 166 113 67 409 263 428 281 8 7
23 18 35 25 37 19 355 260 492 373 246 202 426 367 660 605 181 184 211 217
444 485 145 166 591 771 591 801 0 4 9 17 19 28 20 21 181 285 263 431 177
314 351 674 472 980 27 66 52 129 57 140 48 110 170 476 234 700 71 251 164
643 189 805 3 19 14 87 25 150 27 159 43 273 56 400 3 30 8 66 10 80 2 14 7
63 11 110 3 47 8 101 9 120 27 316 27 1008 0 1290 -2 25 -7 79 -11 120 -3 41
-7 89 -9 105 -4 49 -16 148 -20 175 -2 14 -7 48 -10 75 -7 52 -11 85 -20 133
-3 16 -7 44 -9 63 -3 19 -7 46 -10 59 -3 14 -8 43 -11 65 -4 31 -58 302 -80
405 -2 8 -20 80 -40 160 -20 80 -38 155 -41 167 -23 115 -220 718 -285 871 -5
12 -13 32 -19 45 -5 12 -38 92 -74 177 -92 222 -251 554 -347 726 -16 29 -39
72 -52 96 -112 205 -423 694 -524 823 -36 46 -35 45 -98 130 -52 71 -300 382
-314 395 -3 3 -33 37 -66 75 -210 245 -585 620 -818 818 -28 23 -55 47 -61 52
-24 23 -188 156 -296 241 -136 106 -294 220 -445 322 -38 26 -71 50 -73 55 -2
4 -8 7 -13 7 -4 0 -34 17 -66 38 -32 22 -89 58 -128 82 -38 24 -86 53 -105 65
-266 169 -824 445 -1205 597 -259 104 -628 227 -885 296 -176 48 -200 54 -224
59 -11 2 -47 11 -80 19 -34 9 -71 18 -84 20 -13 3 -74 15 -135 29 -112 24
-131 28 -197 39 -82 14 -97 17 -130 21 -19 3 -44 8 -56 10 -48 10 -340 49
-459 61 -38 3 -77 8 -86 9 -9 2 -65 6 -125 10 -60 4 -125 9 -144 11 -41 5
-847 14 -852 9z"/>
</g>
</svg>
