<?xml version="1.0" standalone="no"?>
<!DOCTYPE svg PUBLIC "-//W3C//DTD SVG 20010904//EN"
 "http://www.w3.org/TR/2001/REC-SVG-20010904/DTD/svg10.dtd">
<svg version="1.0" xmlns="http://www.w3.org/2000/svg"
 width="854.000000pt" height="854.000000pt" viewBox="0 0 854.000000 854.000000"
 preserveAspectRatio="xMidYMid meet">
<metadata>
Created by potrace 1.14, written by Peter Selinger 2001-2017
</metadata>
<g transform="translate(0.000000,854.000000) scale(0.100000,-0.100000)"
fill="#000000" stroke="none">
<path d="M1300 5100 c0 -3264 1 -3430 18 -3421 9 6 213 124 452 264 l435 253
5 2392 5 2391 1065 -610 c586 -336 1519 -870 2073 -1186 l1008 -574 382 222
c210 123 408 238 440 257 l59 34 -109 62 c-59 34 -349 201 -643 371 -1194 688
-2227 1280 -3550 2037 -514 294 -1083 620 -1265 725 -181 104 -340 195 -352
202 l-23 12 0 -3431z"/>
<path d="M2260 6376 l0 -522 1368 -780 c2248 -1281 2787 -1590 2786 -1600 -1
-10 -403 -246 -1764 -1034 -520 -301 -1096 -635 -1280 -742 -184 -107 -509
-295 -722 -419 l-388 -224 0 -517 0 -516 293 172 c160 95 681 403 1157 683
476 281 1005 593 1175 693 414 245 2366 1394 2878 1695 390 230 407 241 386
255 -37 25 -1721 993 -3861 2218 l-2028 1161 0 -523z"/>
<path d="M370 3444 l0 -3436 43 25 c261 153 1920 1119 2119 1233 145 84 481
279 748 434 468 273 2326 1352 2813 1635 208 120 236 139 220 150 -10 6 -217
125 -460 263 l-442 252 -933 -544 c-513 -299 -1261 -733 -1663 -966 -401 -233
-912 -529 -1135 -658 -223 -129 -410 -237 -417 -239 -10 -4 -13 470 -15 2392
l-3 2398 -400 229 c-220 126 -417 238 -437 249 l-38 19 0 -3436z"/>
</g>
</svg>
