<?xml version="1.0" encoding="utf-8"?>
<!-- Generator: Adobe Illustrator 22.0.1, SVG Export Plug-In . SVG Version: 6.00 Build 0)  -->
<svg version="1.1" id="LOGO_POSITIV_-_copieFLAT" xmlns="http://www.w3.org/2000/svg" xmlns:xlink="http://www.w3.org/1999/xlink"
	 x="0px" y="0px" viewBox="0 0 1752.1 399.2" style="enable-background:new 0 0 1752.1 399.2;" xml:space="preserve">
<style type="text/css">
	.st0{fill:#282A2D;}
	.st1{fill:#FFFFFF;}
	.st2{fill:#E5A108;}
</style>
<rect x="-13.5" y="-15.7" class="st0" width="1778.9" height="427.5"/>
<g>
	<path class="st1" d="M427.7,253.4c-2.7,0-5.6-0.1-8.7-0.3c-3.1-0.2-6.3-0.5-9.6-0.9c-3.3-0.4-6.6-0.9-9.9-1.4
		c-3.3-0.5-6.4-1.1-9.4-1.9v-19.3c6.7,1.6,13.1,2.8,19.1,3.6c6,0.8,11.5,1.3,16.4,1.3c6.6,0,11.4-0.9,14.5-2.7
		c3-1.8,4.5-4.5,4.5-8.2c0-4.2-1.7-7.2-5-9.1c-3.3-1.9-8-3.4-14.2-4.6c-5.8-1.1-10.8-2.5-15-4.3c-4.2-1.7-7.8-3.9-10.6-6.4
		s-5-5.7-6.4-9.3c-1.4-3.6-2.1-7.9-2.1-12.9c0-4.8,0.9-9,2.8-12.7c1.9-3.7,4.6-6.9,8.1-9.6c3.5-2.7,7.8-4.7,12.9-6.1
		s10.7-2.1,17.1-2.1c2.2,0,4.5,0.1,6.7,0.2c2.2,0.1,4.6,0.4,7.1,0.6c2.5,0.3,5.2,0.7,8.2,1.2c2.9,0.5,6.2,1.1,9.7,1.9v19.2
		c-4.7-1.3-9.6-2.4-15-3.1c-5.3-0.8-10.1-1.2-14.3-1.2c-6.1,0-10.7,1-13.8,2.9c-3.2,2-4.8,4.8-4.8,8.4c0,3.9,1.6,6.9,4.8,8.9
		c3.2,2.1,8.3,3.9,15.4,5.5c5.3,1.1,10,2.5,14.2,4.1c4.1,1.6,7.6,3.6,10.4,6c2.8,2.4,4.9,5.2,6.4,8.6c1.5,3.4,2.2,7.3,2.2,11.9
		c0,10.4-3.5,18.3-10.6,23.7S441.4,253.4,427.7,253.4z"/>
	<path class="st1" d="M505.2,167h-30.1v-18.7h84.3V167h-30.3v84.7h-23.9V167z"/>
	<path class="st1" d="M613.4,217.2c-1.6,0.1-3.2,0.2-5,0.2c-1.7,0-3.5,0.1-5.2,0.1c-0.4,0-0.9,0-1.7,0c-0.7,0-1.5,0-2.4-0.1
		c-0.8,0-1.7-0.1-2.4-0.1c-0.8,0-1.4-0.1-1.9-0.1v34.5h-23.9V148.9c10.7-1.4,21-2.1,30.9-2.1c9.3,0,17.3,0.7,24,2
		c6.7,1.4,12.2,3.5,16.6,6.4c4.3,2.9,7.5,6.5,9.6,11c2,4.4,3.1,9.8,3.1,16c0,15.1-6.9,25.3-20.7,30.6l25.2,38.9h-26.6L613.4,217.2z
		 M606.4,199.1c4.6,0,8.4-0.3,11.5-0.8c3.1-0.6,5.6-1.5,7.5-2.9c1.9-1.3,3.3-3.1,4.1-5.2c0.8-2.1,1.3-4.8,1.3-8
		c0-3.1-0.4-5.7-1.2-7.8c-0.8-2.1-2.1-3.9-4.1-5.2c-1.9-1.3-4.4-2.3-7.4-2.9c-3-0.6-6.8-0.8-11.3-0.8c-1.8,0-3.8,0.1-6.2,0.3
		c-2.4,0.2-4.4,0.4-5.9,0.6v31.9c1.1,0.4,2.7,0.6,4.6,0.8C601.4,199.1,603.7,199.1,606.4,199.1z"/>
	<path class="st1" d="M670.4,148.2h74.9v18.6h-51v23.5h46.4v18.6h-46.4v24.2h52.3v18.6h-76.2V148.2z"/>
	<path class="st1" d="M754.6,250.4l34-102.2H824l34,102.2v1.3h-23.1l-8.2-24.9h-41l-8.1,24.9h-23.1V250.4z M821.2,208.2l-7.7-23.2
		l-6.3-20.3h-2.1l-6.1,20.4l-7.7,23.1H821.2z"/>
	<path class="st1" d="M868.1,148.2h32.6l19.7,50.6l6.7,21.4h1l6.6-21.4l19.8-50.6h32.6v103.4h-21.2v-76.7h-1.1l-9.6,28.5l-17.8,44
		h-19.6l-17.6-44l-9.8-28.5h-1.1v76.7h-21.1V148.2z"/>
	<path class="st1" d="M1006.4,148.2h19.1l43.9,56.2l8.2,11.9h1.3v-68.1h20.8v103.4h-19.1l-43.1-55.3l-9.1-12.7h-1.1v68.1h-21V148.2z
		"/>
	<path class="st1" d="M1119,148.2h74.9v18.6h-51v23.5h46.4v18.6h-46.4v24.2h52.3v18.6H1119V148.2z"/>
	<path class="st1" d="M1233.9,167h-30.1v-18.7h84.3V167h-30.3v84.7h-23.9V167z"/>
	<path class="st1" d="M1375.3,253.4c-17.6,0-30.7-4.4-39.1-13.1c-8.5-8.7-12.7-22.1-12.7-40.2c0-18.2,4.1-31.6,12.4-40.4
		c8.3-8.8,20.9-13.1,37.7-13.1c3.3,0,6.8,0.2,10.8,0.5c3.9,0.3,8.4,0.9,13.4,1.6v19.2c-2.7-0.3-5.1-0.5-7.1-0.8
		c-2-0.2-3.9-0.4-5.6-0.6c-1.7-0.1-3.2-0.3-4.5-0.4c-1.4-0.1-2.7-0.1-4-0.1c-5.4,0-10,0.6-13.6,1.7c-3.7,1.1-6.6,3-8.9,5.6
		c-2.2,2.6-3.8,6.1-4.8,10.5c-0.9,4.4-1.4,9.8-1.4,16.4c0,6.4,0.5,11.8,1.5,16.1c1,4.3,2.6,7.7,4.8,10.3c2.2,2.6,5.1,4.5,8.7,5.6
		c3.6,1.1,8,1.7,13.2,1.7c1.5,0,3.2,0,5.2-0.1c2-0.1,4-0.3,6-0.5c2-0.2,3.9-0.5,5.8-0.7c1.9-0.2,3.4-0.5,4.7-0.8v19
		c-3.4,0.7-7,1.4-11,1.9C1382.8,253.1,1379,253.4,1375.3,253.4z"/>
	<path class="st1" d="M1410.4,148.2h23.9v85h44.3v18.4h-68.2V148.2z"/>
	<path class="st1" d="M1534.5,253.1c-8.7,0-16-0.9-21.9-2.7c-6-1.8-10.8-4.5-14.5-8.1c-3.7-3.6-6.3-8.2-8-13.7
		c-1.6-5.5-2.4-12-2.4-19.6v-60.9h23.8v61.5c0,8.2,1.8,14.3,5.5,18.3c3.7,4,9.5,6,17.5,6c7.9,0,13.7-2,17.4-5.9
		c3.7-4,5.5-10.1,5.5-18.4v-61.5h23.8V209c0,7.5-0.8,14.1-2.5,19.6c-1.6,5.5-4.3,10.1-8,13.7c-3.7,3.6-8.5,6.3-14.4,8.1
		C1550.4,252.2,1543.1,253.1,1534.5,253.1z"/>
	<path class="st1" d="M1640.1,253.1c-6.6,0-13.2-0.2-19.8-0.5c-6.6-0.3-13.5-0.9-20.8-1.6v-102c7.2-0.7,13.7-1.3,19.7-1.6
		c6-0.3,11.8-0.5,17.6-0.5c15.5,0,26.7,2.3,33.7,7c7,4.7,10.5,12,10.5,22.1c0,5.9-1.5,10.7-4.5,14.5c-3,3.8-7.4,6.4-13.3,7.8v0.6
		c6.9,1.3,12.1,4.1,15.7,8.3c3.6,4.2,5.4,9.7,5.4,16.4c0,10.1-3.6,17.5-10.8,22.3C1666.3,250.7,1655.2,253.1,1640.1,253.1z
		 M1638.8,191.6c6.8,0,11.6-1,14.4-3.1c2.8-2.1,4.2-5.7,4.2-10.8c0-5-1.5-8.6-4.4-10.7c-2.9-2.1-7.9-3.1-14.9-3.1
		c-3.2,0-6.1,0.1-8.7,0.2c-2.6,0.1-5,0.4-7.3,0.8v26.8H1638.8z M1639.8,236.2c13.9,0,20.8-4.9,20.8-14.7c0-5-1.6-8.7-4.7-10.9
		c-3.1-2.2-8.3-3.4-15.6-3.4h-18.2v28.1c0.8,0.2,1.7,0.3,2.7,0.4c0.9,0.1,2,0.2,3.4,0.3c1.3,0.1,2.9,0.1,4.8,0.1
		C1634.8,236.2,1637.1,236.2,1639.8,236.2z"/>
</g>
<circle class="st2" cx="133" cy="95.1" r="9.2"/>
<circle class="st2" cx="309.5" cy="204.1" r="9.2"/>
<path class="st2" d="M156.9,258.6c-0.8,0-1.5-0.2-2.2-0.6c-1.3-0.8-2.2-2.2-2.2-3.8V152.9c0-1.6,0.8-3,2.2-3.8c1.4-0.8,3-0.8,4.4,0
	l89.1,51c1.4,0.8,2.2,2.2,2.2,3.8c0,1.6-0.9,3-2.2,3.8L159,258.1C158.4,258.4,157.6,258.6,156.9,258.6z M161.3,160.5v86.2l75.8-42.8
	L161.3,160.5z"/>
<g>
	<path class="st1" d="M306.5,181.3c-2.1,0-3.9-1.4-4.4-3.5c-11.7-53-59.6-91.5-114-91.5c-9.2,0-18.7,1.2-28.4,3.6
		c-2.4,0.6-4.9-0.9-5.5-3.3c-0.6-2.4,0.9-4.9,3.3-5.5c10.3-2.6,20.6-3.9,30.5-3.9c58.5,0,110.1,41.5,122.8,98.6
		c0.5,2.4-1,4.8-3.4,5.4C307.2,181.3,306.9,181.3,306.5,181.3z"/>
	<path class="st1" d="M188.2,328.9c-9.9,0-20.2-1.3-30.5-3.9c-2.4-0.6-3.9-3-3.3-5.5c0.6-2.4,3.1-3.9,5.5-3.3
		c9.6,2.4,19.1,3.6,28.3,3.6c54.2,0,100.9-36.9,113.5-89.6c0.6-2.4,3-3.9,5.4-3.3c2.4,0.6,3.9,3,3.3,5.4
		C296.9,289.1,246.6,328.9,188.2,328.9z"/>
	<path class="st1" d="M110.2,300.4c-1,0-2.1-0.3-2.9-1.1c-28.5-24-44.9-59.1-44.9-96.3c0-37.1,16.3-72.2,44.8-96.2
		c1.9-1.6,4.7-1.4,6.4,0.5c1.6,1.9,1.4,4.7-0.5,6.4c-26.4,22.3-41.6,54.8-41.6,89.3c0,34.5,15.2,67.1,41.7,89.4
		c1.9,1.6,2.2,4.4,0.5,6.3C112.7,299.8,111.4,300.4,110.2,300.4z"/>
</g>
<circle class="st2" cx="1295.7" cy="240.8" r="12.1"/>
<circle class="st2" cx="133" cy="311.1" r="9.2"/>
</svg>
