<?xml version="1.0" standalone="no"?>
<!DOCTYPE svg PUBLIC "-//W3C//DTD SVG 20010904//EN"
 "http://www.w3.org/TR/2001/REC-SVG-20010904/DTD/svg10.dtd">
<svg version="1.0" xmlns="http://www.w3.org/2000/svg"
 width="501.000000pt" height="501.000000pt" viewBox="0 0 501.000000 501.000000"
 preserveAspectRatio="xMidYMid meet">
<metadata>
Created by potrace 1.14, written by Peter Selinger 2001-2017
</metadata>
<g transform="translate(0.000000,501.000000) scale(0.100000,-0.100000)"
fill="#000000" stroke="none">
<path d="M2407 4870 c-37 -29 -54 -88 -36 -125 27 -55 52 -64 199 -69 156 -7
187 -10 332 -37 760 -140 1397 -687 1650 -1417 48 -140 92 -327 104 -440 3
-32 7 -68 9 -81 2 -13 5 -67 6 -120 1 -91 8 -122 33 -147 57 -57 161 -30 178
47 7 31 3 188 -7 276 -13 108 -19 146 -37 233 -81 397 -259 758 -532 1080 -17
19 -73 78 -126 130 -331 330 -742 550 -1205 645 -131 27 -278 42 -421 44 -108
2 -123 0 -147 -19z"/>
<path d="M1972 4824 c-85 -59 -45 -194 59 -194 28 0 47 8 71 28 27 25 31 36
31 77 0 41 -4 52 -31 77 -37 32 -93 38 -130 12z"/>
<path d="M1558 4694 c-74 -39 -71 -151 4 -187 56 -27 117 -6 142 48 45 93 -54
187 -146 139z"/>
<path d="M1171 4479 c-33 -20 -61 -70 -56 -98 2 -9 4 -21 4 -27 1 -16 32 -49
59 -63 31 -16 91 -6 119 21 29 27 39 79 23 119 -25 59 -95 81 -149 48z"/>
<path d="M2855 4293 c-85 -44 -122 -115 -111 -210 l6 -51 -195 -314 c-108
-172 -199 -314 -203 -315 -4 -1 -64 74 -134 166 l-126 167 0 60 c1 76 -27 134
-84 171 -35 24 -52 28 -107 28 -68 -1 -104 -15 -144 -60 -66 -74 -62 -200 10
-266 37 -34 59 -46 108 -53 22 -4 43 -10 47 -14 15 -15 298 -387 298 -392 0
-4 -249 -53 -440 -86 -245 -44 -363 -69 -398 -85 -66 -33 -129 -111 -145 -183
-19 -87 -17 -1033 2 -1091 35 -105 116 -171 246 -200 6 -2 161 -41 345 -88
311 -80 752 -192 1050 -267 140 -36 185 -36 269 1 56 23 115 82 137 135 11 27
265 914 279 974 2 8 33 119 68 245 165 582 164 577 140 658 -24 82 -70 140
-138 176 -36 18 -113 38 -140 36 -15 -1 -118 -17 -135 -20 -8 -2 -42 -8 -75
-14 -33 -6 -71 -13 -85 -16 -14 -3 -74 -14 -135 -25 -60 -11 -119 -21 -130
-24 -11 -2 -36 -6 -55 -10 -19 -3 -46 -8 -60 -11 -14 -3 -50 -9 -80 -15 -30
-6 -66 -12 -80 -15 -14 -2 -47 -9 -75 -14 -27 -5 -52 -8 -54 -5 -2 2 5 16 15
31 10 15 24 37 30 48 14 26 333 535 355 567 3 5 18 11 32 14 48 8 74 22 109
58 115 118 35 316 -130 323 -36 1 -68 -4 -87 -14z m690 -1098 c14 -13 25 -32
25 -43 0 -15 -92 -349 -312 -1127 -28 -99 -54 -193 -58 -210 -55 -204 -100
-357 -112 -382 -23 -47 -37 -45 -502 73 -1043 264 -1110 282 -1128 305 -17 20
-18 59 -18 506 0 301 4 491 10 503 5 10 25 23 43 29 32 11 61 16 312 61 61 11
121 22 135 25 14 3 39 8 55 11 17 3 102 18 190 35 88 16 175 32 194 35 34 6
57 10 101 19 14 2 36 7 50 9 14 2 138 25 275 50 138 25 266 48 285 51 19 3 55
11 80 16 25 6 63 13 85 16 21 2 42 6 45 8 4 2 26 7 51 10 24 3 60 10 79 15 63
15 90 11 115 -15z"/>
<path d="M2129 2764 l-24 -25 0 -422 c-1 -259 3 -431 9 -445 12 -28 52 -50 86
-47 14 2 66 26 115 55 50 29 173 101 275 160 328 189 351 203 360 221 29 54
12 104 -47 135 -21 11 -183 105 -360 207 -350 203 -368 210 -414 161z"/>
<path d="M815 4188 c-31 -28 -44 -73 -34 -114 11 -40 38 -64 83 -71 91 -14
153 68 114 152 -25 55 -116 73 -163 33z"/>
<path d="M564 3861 c-72 -31 -85 -143 -22 -185 75 -49 168 -2 168 85 0 72 -81
127 -146 100z"/>
<path d="M353 3465 c-66 -28 -80 -117 -27 -170 25 -25 35 -28 89 -27 46 1 94
58 90 105 -5 49 -20 74 -55 92 -35 18 -55 18 -97 0z"/>
<path d="M233 3045 c-112 -49 -70 -216 50 -201 106 13 130 161 32 202 -41 17
-42 17 -82 -1z"/>
<path d="M182 2603 c-62 -30 -68 -77 -47 -333 35 -413 207 -849 476 -1207 67
-89 262 -295 349 -368 170 -144 383 -278 582 -366 85 -37 296 -112 349 -123
13 -3 42 -10 64 -15 22 -6 55 -13 74 -16 19 -3 37 -7 40 -9 3 -2 31 -7 62 -10
31 -4 66 -9 78 -11 38 -7 193 -17 277 -17 96 -1 138 18 155 69 15 46 3 88 -33
118 -26 22 -39 25 -111 26 -114 2 -257 12 -317 24 -14 3 -41 8 -60 11 -19 3
-64 12 -99 21 -36 8 -72 16 -80 18 -90 18 -336 115 -446 176 -118 64 -311 190
-335 218 -3 3 -32 28 -65 56 -234 194 -456 494 -580 784 -83 196 -144 420
-160 596 -4 38 -9 78 -11 88 -2 11 -4 56 -5 101 -1 44 -5 95 -11 113 -17 57
-88 84 -146 56z"/>
<path d="M4693 2165 c-33 -14 -63 -59 -63 -95 0 -57 63 -115 115 -106 67 12
96 44 97 105 0 50 -27 88 -72 101 -42 12 -38 12 -77 -5z"/>
<path d="M4591 1749 c-51 -11 -84 -49 -84 -98 0 -74 51 -119 122 -107 49 8 82
44 87 94 3 35 -1 47 -26 76 -35 39 -52 45 -99 35z"/>
<path d="M4329 1331 c-65 -66 -17 -181 76 -181 95 0 142 128 68 187 -42 34
-106 32 -144 -6z"/>
<path d="M4084 1010 c-30 -12 -64 -63 -64 -95 0 -37 36 -94 63 -100 92 -20
147 17 147 99 -1 79 -72 126 -146 96z"/>
<path d="M3732 720 c-64 -39 -66 -135 -5 -176 36 -24 85 -26 120 -4 71 45 57
164 -22 189 -41 13 -60 11 -93 -9z"/>
<path d="M3358 513 c-62 -25 -82 -100 -42 -161 35 -53 121 -54 166 -1 36 43
33 99 -8 139 -36 36 -68 42 -116 23z"/>
<path d="M2933 380 c-13 -5 -32 -24 -43 -42 -64 -104 70 -211 162 -129 29 26
33 35 32 76 -1 35 -7 52 -26 71 -28 28 -89 40 -125 24z"/>
</g>
</svg>
