<?xml version="1.0" standalone="no"?>
<!DOCTYPE svg PUBLIC "-//W3C//DTD SVG 20010904//EN"
 "http://www.w3.org/TR/2001/REC-SVG-20010904/DTD/svg10.dtd">
<svg version="1.0" xmlns="http://www.w3.org/2000/svg"
 width="1083.000000pt" height="1083.000000pt" viewBox="0 0 1083.000000 1083.000000"
 preserveAspectRatio="xMidYMid meet">
<metadata>
Created by potrace 1.14, written by Peter Selinger 2001-2017
</metadata>
<g transform="translate(0.000000,1083.000000) scale(0.100000,-0.100000)"
fill="#000000" stroke="none">
<path d="M3399 9937 c-4 -65 -2 -6841 2 -6849 3 -5 147 72 320 173 173 100
366 212 429 249 63 36 125 73 138 81 l22 14 0 2387 c0 1314 3 2388 8 2388 4 0
84 -44 177 -98 94 -54 177 -101 185 -105 8 -4 24 -13 35 -20 11 -7 94 -54 185
-106 91 -52 179 -102 195 -111 139 -80 439 -252 475 -272 25 -14 61 -34 80
-45 111 -64 1002 -574 1040 -595 25 -14 61 -34 80 -45 309 -177 443 -254 480
-275 25 -14 69 -39 98 -57 29 -17 57 -31 62 -31 6 0 10 -3 10 -8 0 -4 21 -17
48 -30 26 -13 61 -31 77 -41 61 -37 258 -151 260 -151 2 0 38 -20 79 -45 42
-25 79 -45 81 -45 3 0 29 -16 59 -35 30 -19 57 -35 59 -35 3 0 55 -29 116 -65
62 -36 138 -79 169 -97 31 -17 65 -36 74 -42 18 -11 32 -6 103 38 22 14 56 33
75 44 19 11 130 75 245 142 116 68 230 134 255 148 25 14 73 43 108 64 34 21
65 38 68 38 2 0 16 7 30 16 l24 17 -22 12 c-13 7 -68 38 -123 70 -55 32 -125
71 -155 88 -30 16 -59 33 -65 37 -9 7 -225 132 -315 183 -19 10 -112 63 -206
118 -94 54 -189 108 -210 120 -22 11 -43 25 -49 29 -5 4 -35 21 -65 37 -30 17
-143 81 -250 143 -107 62 -215 124 -240 138 -25 14 -209 120 -410 235 -201
116 -381 219 -400 230 -19 10 -75 43 -125 72 -49 29 -110 64 -135 78 -124 69
-297 168 -310 177 -17 10 -110 64 -155 90 -39 22 -671 385 -885 508 -91 52
-190 108 -220 125 -30 16 -59 33 -65 37 -5 4 -118 70 -250 145 -553 318 -923
530 -1103 634 -106 60 -192 104 -193 98z"/>
<path d="M4355 7788 l0 -520 55 -32 c30 -18 249 -143 485 -278 237 -135 504
-288 595 -340 91 -52 185 -106 210 -120 25 -14 284 -161 575 -328 292 -167
545 -311 563 -322 18 -10 63 -36 100 -57 251 -143 363 -207 402 -229 25 -14
57 -33 72 -43 14 -11 28 -19 31 -19 2 0 123 -68 268 -151 145 -83 284 -163
309 -177 25 -13 72 -40 105 -60 76 -44 124 -72 150 -86 134 -75 245 -139 245
-141 0 -4 -120 -75 -127 -75 -3 0 -17 -8 -31 -19 -15 -10 -43 -27 -62 -38 -19
-11 -91 -53 -160 -93 -69 -40 -145 -84 -170 -98 -53 -30 -817 -474 -1035 -602
-82 -48 -166 -97 -185 -107 -72 -41 -266 -153 -280 -162 -8 -6 -42 -26 -75
-44 -33 -19 -154 -89 -269 -156 -114 -67 -212 -121 -217 -121 -5 0 -9 -4 -9
-10 0 -5 -4 -10 -9 -10 -5 0 -71 -37 -147 -81 -77 -45 -154 -90 -171 -100 -51
-29 -85 -49 -283 -164 -102 -60 -198 -115 -215 -124 -16 -9 -31 -19 -33 -23
-2 -5 -7 -8 -12 -8 -5 0 -55 -28 -112 -61 -57 -34 -121 -72 -143 -84 -108 -61
-411 -237 -415 -242 -7 -7 -6 -1024 2 -1029 3 -2 13 3 21 11 9 8 18 15 21 15
5 0 113 63 361 210 72 43 146 87 165 98 19 11 71 41 115 67 44 26 94 56 110
65 47 27 617 363 865 510 124 73 250 147 280 165 30 18 105 61 165 97 61 36
139 82 175 103 94 55 312 184 330 195 8 5 38 22 65 38 28 16 102 59 165 97 63
37 129 76 146 85 17 10 64 38 105 63 91 54 317 188 344 203 11 6 67 39 125 74
58 35 119 71 135 80 17 10 109 64 205 120 96 56 189 110 205 120 25 14 125 74
185 110 8 5 87 51 175 103 88 52 234 138 325 192 91 54 179 105 196 115 16 10
67 39 112 66 46 27 90 54 100 59 164 93 712 422 712 427 0 5 -4 8 -9 8 -5 0
-73 37 -152 83 -246 143 -1442 830 -1529 879 -25 14 -112 65 -195 115 -82 49
-175 103 -205 120 -30 16 -98 55 -151 86 -53 30 -111 64 -130 74 -34 18 -361
206 -389 223 -26 16 -563 323 -605 345 -22 12 -112 63 -199 113 -88 51 -163
92 -168 92 -4 0 -8 5 -8 10 0 6 -4 10 -9 10 -5 0 -164 88 -353 197 -189 108
-361 206 -383 218 -22 12 -112 63 -199 113 -88 51 -163 92 -168 92 -4 0 -8 5
-8 10 0 6 -4 10 -10 10 -5 0 -44 20 -86 45 -41 25 -77 45 -79 45 -1 0 -58 32
-126 72 -68 39 -137 78 -154 87 -16 9 -31 19 -33 24 -2 4 -8 7 -14 7 -5 0 -40
17 -76 39 -37 21 -83 48 -102 58 -104 59 -306 177 -315 184 -6 4 -22 12 -35
17 l-25 10 0 -520z"/>
<path d="M2470 4855 c0 -1889 2 -3435 4 -3435 2 0 212 122 467 271 255 149
502 293 549 320 47 27 92 54 100 59 8 5 62 37 120 70 58 34 112 65 120 70 32
21 278 164 330 193 30 17 75 43 100 59 25 15 59 35 76 43 26 12 154 85 371
211 18 11 103 60 190 110 87 51 280 163 428 249 149 87 290 169 315 183 24 14
84 49 133 78 49 30 91 54 92 54 3 0 195 111 225 130 8 5 49 28 90 52 41 23 83
47 92 53 84 51 159 94 240 139 29 15 60 34 69 42 8 8 19 14 22 14 7 0 149 82
219 126 21 13 39 24 42 24 2 0 51 28 108 62 56 33 145 85 195 115 51 29 137
79 190 110 54 31 123 71 153 88 30 18 125 73 210 122 85 50 200 116 255 148
55 31 105 61 110 65 6 4 33 20 60 35 142 78 286 168 278 175 -7 6 -202 119
-333 192 -19 11 -76 44 -127 74 -51 30 -95 54 -99 54 -4 0 -15 6 -23 14 -9 8
-43 28 -76 46 -33 17 -73 39 -90 49 -16 10 -46 27 -65 38 -19 11 -49 28 -65
38 -36 21 -11 32 -307 -141 -97 -57 -180 -104 -184 -104 -3 0 -18 -8 -32 -19
-22 -15 -305 -181 -447 -261 -16 -9 -68 -40 -115 -67 -47 -28 -101 -60 -120
-71 -127 -72 -941 -545 -965 -561 -16 -11 -46 -28 -66 -39 -43 -24 -252 -144
-454 -262 -82 -48 -169 -98 -191 -111 -57 -33 -735 -428 -754 -440 -35 -21
-552 -319 -555 -319 -2 0 -3 1076 -3 2391 0 1990 -2 2394 -14 2404 -7 7 -33
24 -58 37 -25 14 -142 80 -260 148 -118 68 -233 133 -255 146 -22 12 -96 54
-163 93 -68 39 -126 71 -128 71 -2 0 -4 -1546 -4 -3435z"/>
</g>
</svg>
